<svg width="215" height="56" viewBox="0 0 215 56" fill="none" xmlns="http://www.w3.org/2000/svg">
<path d="M67.7685 38.9453C67.2148 38.9453 66.7771 38.7902 66.4555 38.4802C66.1518 38.1518 66 37.6867 66 37.0848V21.2982C66 20.6963 66.1518 20.2403 66.4555 19.9302C66.7771 19.6019 67.2326 19.4378 67.8221 19.4378H77.1739C77.6384 19.4378 77.9867 19.5563 78.219 19.7934C78.4512 20.0306 78.5673 20.368 78.5673 20.8057C78.5673 21.2617 78.4512 21.6174 78.219 21.8728C77.9867 22.1099 77.6384 22.2285 77.1739 22.2285H69.4299V27.6731H76.6112C77.0578 27.6731 77.3972 27.7916 77.6294 28.0287C77.8795 28.2658 78.0046 28.6033 78.0046 29.041C78.0046 29.497 77.8795 29.8527 77.6294 30.1081C77.3972 30.3452 77.0578 30.4637 76.6112 30.4637H69.4299V37.0848C69.4299 38.3251 68.8761 38.9453 67.7685 38.9453Z" fill="white"/>
<path d="M83.4592 38.9179C82.9233 38.9179 82.5125 38.7538 82.2266 38.4254C81.9408 38.0971 81.7979 37.6411 81.7979 37.0575V27.0164C81.7979 26.4145 81.9408 25.9585 82.2266 25.6484C82.5125 25.3201 82.9233 25.156 83.4592 25.156C83.9952 25.156 84.406 25.3201 84.6919 25.6484C84.9955 25.9585 85.1474 26.4145 85.1474 27.0164V37.0575C85.1474 37.6411 85.0045 38.0971 84.7187 38.4254C84.4328 38.7538 84.013 38.9179 83.4592 38.9179ZM83.4592 22.6115C82.834 22.6115 82.3427 22.4565 81.9855 22.1464C81.6461 21.8181 81.4763 21.3712 81.4763 20.8057C81.4763 20.2221 81.6461 19.7752 81.9855 19.4651C82.3427 19.155 82.834 19 83.4592 19C84.1023 19 84.5936 19.155 84.933 19.4651C85.2724 19.7752 85.4421 20.2221 85.4421 20.8057C85.4421 21.3712 85.2724 21.8181 84.933 22.1464C84.5936 22.4565 84.1023 22.6115 83.4592 22.6115Z" fill="white"/>
<path d="M90.2891 38.9453C89.7532 38.9453 89.3423 38.7994 89.0565 38.5075C88.7706 38.1974 88.6277 37.7597 88.6277 37.1943V26.8523C88.6277 26.2868 88.7706 25.8582 89.0565 25.5663C89.3423 25.2745 89.7442 25.1286 90.2623 25.1286C90.7803 25.1286 91.1823 25.2745 91.4681 25.5663C91.7539 25.8582 91.8968 26.2868 91.8968 26.8523V28.7127L91.6021 28.0287C91.9951 27.062 92.6025 26.3324 93.4242 25.8399C94.2638 25.3292 95.2106 25.0739 96.2646 25.0739C97.3185 25.0739 98.185 25.2745 98.8638 25.6758C99.5426 26.0771 100.052 26.6881 100.391 27.5089C100.731 28.3114 100.9 29.3329 100.9 30.5732V37.1943C100.9 37.7597 100.757 38.1974 100.472 38.5075C100.186 38.7994 99.7748 38.9453 99.2389 38.9453C98.703 38.9453 98.2832 38.7994 97.9795 38.5075C97.6937 38.1974 97.5508 37.7597 97.5508 37.1943V30.7373C97.5508 29.6977 97.3543 28.9407 96.9613 28.4665C96.5861 27.9922 95.9966 27.7551 95.1927 27.7551C94.2102 27.7551 93.4242 28.0743 92.8347 28.7127C92.263 29.3329 91.9772 30.1628 91.9772 31.2025V37.1943C91.9772 38.3616 91.4145 38.9453 90.2891 38.9453Z" fill="white"/>
<path d="M109.34 39C108.197 39 107.187 38.7173 106.312 38.1518C105.455 37.5864 104.785 36.7839 104.302 35.7442C103.82 34.6863 103.579 33.446 103.579 32.0233C103.579 30.5823 103.82 29.3511 104.302 28.3297C104.785 27.29 105.455 26.4875 106.312 25.922C107.187 25.3566 108.197 25.0739 109.34 25.0739C110.43 25.0739 111.376 25.3475 112.18 25.8947C113.002 26.4419 113.556 27.1623 113.842 28.0561H113.547V20.9425C113.547 20.3771 113.69 19.9485 113.976 19.6566C114.261 19.3648 114.672 19.2189 115.208 19.2189C115.744 19.2189 116.155 19.3648 116.441 19.6566C116.745 19.9485 116.896 20.3771 116.896 20.9425V37.1943C116.896 37.7597 116.754 38.1974 116.468 38.5075C116.182 38.7994 115.771 38.9453 115.235 38.9453C114.699 38.9453 114.288 38.7994 114.002 38.5075C113.717 38.1974 113.574 37.7597 113.574 37.1943V35.0602L113.868 35.881C113.601 36.8295 113.056 37.5864 112.234 38.1518C111.412 38.7173 110.448 39 109.34 39ZM110.278 36.4008C110.939 36.4008 111.519 36.2367 112.02 35.9083C112.52 35.58 112.904 35.0967 113.172 34.4583C113.458 33.8016 113.601 32.99 113.601 32.0233C113.601 30.5641 113.297 29.4788 112.689 28.7674C112.082 28.0378 111.278 27.6731 110.278 27.6731C109.617 27.6731 109.036 27.8372 108.536 28.1655C108.036 28.4756 107.643 28.959 107.357 29.6156C107.089 30.254 106.955 31.0565 106.955 32.0233C106.955 33.4642 107.259 34.5586 107.866 35.3064C108.474 36.036 109.277 36.4008 110.278 36.4008Z" fill="white"/>
<path d="M120.718 38.9179C120.36 38.9179 120.075 38.8358 119.86 38.6717C119.646 38.5075 119.521 38.2886 119.485 38.015C119.449 37.7415 119.503 37.4314 119.646 37.0848L126.908 20.4501C127.086 20.0123 127.31 19.7022 127.578 19.5198C127.863 19.3374 128.176 19.2462 128.515 19.2462C128.837 19.2462 129.132 19.3374 129.4 19.5198C129.685 19.7022 129.918 20.0123 130.096 20.4501L137.358 37.0848C137.519 37.4314 137.581 37.7506 137.546 38.0424C137.51 38.316 137.394 38.5349 137.197 38.699C137.001 38.845 136.724 38.9179 136.367 38.9179C135.974 38.9179 135.661 38.8176 135.429 38.617C135.197 38.4163 134.991 38.1062 134.812 37.6867L132.937 33.2544L134.196 34.0205H122.781L124.014 33.2544L122.165 37.6867C121.986 38.1245 121.79 38.4437 121.575 38.6443C121.361 38.8267 121.075 38.9179 120.718 38.9179ZM128.462 22.5841L124.416 32.3789L123.746 31.7223H133.205L132.588 32.3789L128.515 22.5841H128.462Z" fill="white"/>
<path d="M142.19 38.9453C141.636 38.9453 141.199 38.7902 140.877 38.4802C140.573 38.1518 140.422 37.6867 140.422 37.0848V21.2982C140.422 20.6963 140.573 20.2403 140.877 19.9302C141.199 19.6019 141.654 19.4378 142.244 19.4378H151.596C152.06 19.4378 152.408 19.5563 152.641 19.7934C152.873 20.0306 152.989 20.368 152.989 20.8057C152.989 21.2617 152.873 21.6174 152.641 21.8728C152.408 22.1099 152.06 22.2285 151.596 22.2285H143.851V27.6731H151.033C151.479 27.6731 151.819 27.7916 152.051 28.0287C152.301 28.2658 152.426 28.6033 152.426 29.041C152.426 29.497 152.301 29.8527 152.051 30.1081C151.819 30.3452 151.479 30.4637 151.033 30.4637H143.851V37.0848C143.851 38.3251 143.298 38.9453 142.19 38.9453Z" fill="white"/>
<path d="M156.6 38.9453C156.046 38.9453 155.617 38.7994 155.314 38.5075C155.028 38.1974 154.885 37.7597 154.885 37.1943V26.8523C154.885 26.2868 155.028 25.8582 155.314 25.5663C155.599 25.2745 156.001 25.1286 156.519 25.1286C157.038 25.1286 157.439 25.2745 157.725 25.5663C158.011 25.8582 158.154 26.2868 158.154 26.8523V28.5759H157.886C158.136 27.4815 158.627 26.6516 159.36 26.0862C160.092 25.5207 161.066 25.1833 162.281 25.0739C162.656 25.0374 162.951 25.1377 163.165 25.3748C163.397 25.5937 163.531 25.9403 163.567 26.4145C163.603 26.8705 163.495 27.2444 163.245 27.5363C163.013 27.8098 162.656 27.974 162.173 28.0287L161.584 28.0834C160.494 28.1929 159.672 28.5394 159.119 29.1231C158.565 29.6886 158.288 30.4911 158.288 31.5308V37.1943C158.288 37.7597 158.145 38.1974 157.859 38.5075C157.573 38.7994 157.154 38.9453 156.6 38.9453Z" fill="white"/>
<path d="M167.04 38.9179C166.504 38.9179 166.093 38.7538 165.807 38.4254C165.521 38.0971 165.378 37.6411 165.378 37.0575V27.0164C165.378 26.4145 165.521 25.9585 165.807 25.6484C166.093 25.3201 166.504 25.156 167.04 25.156C167.576 25.156 167.986 25.3201 168.272 25.6484C168.576 25.9585 168.728 26.4145 168.728 27.0164V37.0575C168.728 37.6411 168.585 38.0971 168.299 38.4254C168.013 38.7538 167.593 38.9179 167.04 38.9179ZM167.04 22.6115C166.414 22.6115 165.923 22.4565 165.566 22.1464C165.226 21.8181 165.057 21.3712 165.057 20.8057C165.057 20.2221 165.226 19.7752 165.566 19.4651C165.923 19.155 166.414 19 167.04 19C167.683 19 168.174 19.155 168.513 19.4651C168.853 19.7752 169.023 20.2221 169.023 20.8057C169.023 21.3712 168.853 21.8181 168.513 22.1464C168.174 22.4565 167.683 22.6115 167.04 22.6115Z" fill="white"/>
<path d="M178.666 39C177.183 39 175.906 38.7173 174.834 38.1518C173.762 37.5864 172.932 36.7839 172.342 35.7442C171.77 34.7045 171.485 33.4733 171.485 32.0506C171.485 30.6644 171.761 29.4514 172.315 28.4118C172.887 27.3721 173.664 26.5604 174.647 25.9767C175.647 25.3748 176.781 25.0739 178.05 25.0739C178.979 25.0739 179.809 25.2289 180.542 25.539C181.292 25.8491 181.926 26.2959 182.444 26.8796C182.98 27.4633 183.382 28.1746 183.65 29.0137C183.936 29.8345 184.079 30.7647 184.079 31.8044C184.079 32.1327 183.963 32.3881 183.73 32.5705C183.516 32.7346 183.203 32.8167 182.793 32.8167H174.191V30.8468H181.721L181.292 31.2572C181.292 30.4181 181.167 29.7159 180.917 29.1505C180.685 28.585 180.336 28.1564 179.872 27.8646C179.425 27.5545 178.862 27.3995 178.184 27.3995C177.433 27.3995 176.79 27.5819 176.254 27.9466C175.736 28.2932 175.334 28.7948 175.048 29.4514C174.781 30.0898 174.647 30.8559 174.647 31.7497V31.9412C174.647 33.4368 174.986 34.5586 175.665 35.3064C176.361 36.036 177.38 36.4008 178.72 36.4008C179.184 36.4008 179.702 36.3461 180.274 36.2367C180.863 36.109 181.417 35.8992 181.935 35.6074C182.31 35.3885 182.641 35.2973 182.926 35.3338C183.212 35.352 183.436 35.4523 183.596 35.6347C183.775 35.8171 183.882 36.0451 183.918 36.3187C183.954 36.5741 183.9 36.8386 183.757 37.1122C183.632 37.3858 183.409 37.6229 183.087 37.8235C182.462 38.2248 181.739 38.5258 180.917 38.7264C180.113 38.9088 179.363 39 178.666 39Z" fill="white"/>
<path d="M188.393 38.9453C187.857 38.9453 187.446 38.7994 187.16 38.5075C186.874 38.1974 186.731 37.7597 186.731 37.1943V26.8523C186.731 26.2868 186.874 25.8582 187.16 25.5663C187.446 25.2745 187.848 25.1286 188.366 25.1286C188.884 25.1286 189.286 25.2745 189.572 25.5663C189.857 25.8582 190 26.2868 190 26.8523V28.7127L189.706 28.0287C190.099 27.062 190.706 26.3324 191.528 25.8399C192.367 25.3292 193.314 25.0739 194.368 25.0739C195.422 25.0739 196.289 25.2745 196.967 25.6758C197.646 26.0771 198.155 26.6881 198.495 27.5089C198.834 28.3114 199.004 29.3329 199.004 30.5732V37.1943C199.004 37.7597 198.861 38.1974 198.575 38.5075C198.289 38.7994 197.878 38.9453 197.342 38.9453C196.807 38.9453 196.387 38.7994 196.083 38.5075C195.797 38.1974 195.654 37.7597 195.654 37.1943V30.7373C195.654 29.6977 195.458 28.9407 195.065 28.4665C194.69 27.9922 194.1 27.7551 193.296 27.7551C192.314 27.7551 191.528 28.0743 190.938 28.7127C190.367 29.3329 190.081 30.1628 190.081 31.2025V37.1943C190.081 38.3616 189.518 38.9453 188.393 38.9453Z" fill="white"/>
<path d="M207.444 39C206.3 39 205.291 38.7173 204.416 38.1518C203.558 37.5864 202.888 36.7839 202.406 35.7442C201.924 34.6863 201.682 33.446 201.682 32.0233C201.682 30.5823 201.924 29.3511 202.406 28.3297C202.888 27.29 203.558 26.4875 204.416 25.922C205.291 25.3566 206.3 25.0739 207.444 25.0739C208.533 25.0739 209.48 25.3475 210.284 25.8947C211.106 26.4419 211.659 27.1623 211.945 28.0561H211.651V20.9425C211.651 20.3771 211.793 19.9485 212.079 19.6566C212.365 19.3648 212.776 19.2189 213.312 19.2189C213.848 19.2189 214.259 19.3648 214.544 19.6566C214.848 19.9485 215 20.3771 215 20.9425V37.1943C215 37.7597 214.857 38.1974 214.571 38.5075C214.285 38.7994 213.875 38.9453 213.339 38.9453C212.803 38.9453 212.392 38.7994 212.106 38.5075C211.82 38.1974 211.677 37.7597 211.677 37.1943V35.0602L211.972 35.881C211.704 36.8295 211.159 37.5864 210.338 38.1518C209.516 38.7173 208.551 39 207.444 39ZM208.381 36.4008C209.042 36.4008 209.623 36.2367 210.123 35.9083C210.623 35.58 211.007 35.0967 211.275 34.4583C211.561 33.8016 211.704 32.99 211.704 32.0233C211.704 30.5641 211.4 29.4788 210.793 28.7674C210.186 28.0378 209.382 27.6731 208.381 27.6731C207.72 27.6731 207.14 27.8372 206.64 28.1655C206.139 28.4756 205.746 28.959 205.461 29.6156C205.193 30.254 205.059 31.0565 205.059 32.0233C205.059 33.4642 205.362 34.5586 205.97 35.3064C206.577 36.036 207.381 36.4008 208.381 36.4008Z" fill="white"/>
<path d="M34.261 52.7612C30.4274 56.9809 23.6819 57.0213 19.7975 52.8478C18.0626 50.9837 19.4101 47.9975 21.9933 47.9821L32.0064 47.9221C34.5896 47.9066 35.9732 50.8764 34.261 52.7612Z" fill="white"/>
<path fill-rule="evenodd" clip-rule="evenodd" d="M43.6916 47.578C41.67 49.1488 38.8148 48.6299 37.1034 46.734L31.6658 40.7104C29.4744 38.2828 25.6276 38.2828 23.4362 40.7104L17.5513 47.2296C15.8829 49.0778 13.1208 49.626 11.0949 48.1666C4.36943 43.3217 0 35.4835 0 26.6384C0 11.9264 12.0883 0 27 0C41.9117 0 54 11.9264 54 26.6384C54 35.1338 49.9692 42.7004 43.6916 47.578ZM18.8487 29.6226L23.952 35.5807C25.5729 37.4731 28.4271 37.4731 30.048 35.5807L35.1513 29.6226C36.7894 27.71 35.9447 24.683 33.5737 23.9693C29.2801 22.6769 24.7199 22.6769 20.4263 23.9693C18.0553 24.683 17.2106 27.71 18.8487 29.6226ZM19 17C19 19.2091 17.2091 21 15 21C12.7909 21 11 19.2091 11 17C11 14.7909 12.7909 13 15 13C17.2091 13 19 14.7909 19 17ZM39 21C41.2091 21 43 19.2091 43 17C43 14.7909 41.2091 13 39 13C36.7909 13 35 14.7909 35 17C35 19.2091 36.7909 21 39 21Z" fill="white"/>
</svg>
